<?xml version="1.0" encoding="UTF-8" standalone="no"?>
<!DOCTYPE svg PUBLIC "-//W3C//DTD SVG 1.1//EN" "http://www.w3.org/Graphics/SVG/1.1/DTD/svg11.dtd">
<!-- Created with Vectornator (http://vectornator.io/) -->
<svg height="100%" stroke-miterlimit="10" style="fill-rule:nonzero;clip-rule:evenodd;stroke-linecap:round;stroke-linejoin:round;" version="1.1" viewBox="0 0 512 512" width="100%" xml:space="preserve" xmlns="http://www.w3.org/2000/svg" xmlns:vectornator="http://vectornator.io" xmlns:xlink="http://www.w3.org/1999/xlink">
<defs/>
<clipPath id="ArtboardFrame">
<rect height="512" width="512" x="0" y="0"/>
</clipPath>
<g clip-path="url(#ArtboardFrame)" id="Layer-1" vectornator:layerName="Layer 1">
<g opacity="1" vectornator:layerName="Text 1">
<path d="M162.286 224.244C154.215 224.581 147.066 224.752 140.84 224.752C134.613 224.752 129.54 224.752 125.62 224.752C121.699 224.752 116.972 224.752 111.438 224.752C105.903 224.752 99.5612 224.581 92.4125 224.244C64.5093 265.846 43.6394 296.457 29.803 316.073C15.9667 335.352 7.66487 346.006 4.8976 348.035C2.59155 350.401-0.0604329 351.587-3.0583 351.587C-7.20921 351.587-9.28466 348.879-9.28466 343.469C-9.28466 334.337-3.63481 319.961 7.66487 300.345C18.9645 280.729 28.304 270.92 35.6835 270.92L40.8721 273.456L73.0416 223.23C64.7398 222.552 58.1676 221.878 53.3248 221.2C48.4821 220.522 45.4843 219.849 44.3312 219.171C41.7945 217.478 40.5262 214.434 40.5262 210.039C40.5262 205.302 43.6394 197.526 49.8658 186.701C56.3226 175.878 62.3185 168.268 67.853 163.871C73.3876 159.812 84.2261 157.783 100.368 157.783C84.9179 160.827 77.1926 166.069 77.1926 173.51L88.9535 173.51C93.5657 173.848 97.3707 173.933 100.368 173.764C103.366 173.595 105.557 173.341 106.941 173.003C122.853 150.342 137.496 130.217 150.871 112.629C164.246 95.0418 176.584 79.8216 187.883 66.9689C210.252 41.2638 233.774 18.9408 258.449 0C262.138 6.76466 263.983 14.0363 263.983 21.8156C263.983 29.595 262.946 36.0211 260.87 41.0945L213.135 165.9C222.359 165.9 229.104 166.069 233.37 166.407C237.637 166.746 240 167.253 240.462 167.93C241.153 168.606 241.499 170.128 241.499 172.496C241.499 173.848 233.313 189.575 216.94 219.678L192.034 222.722C178.89 258.914 172.317 279.881 172.317 285.632C172.317 291.384 174.739 294.257 179.582 294.257C182.349 294.257 192.15 286.984 208.984 272.442L207.6 285.632L182.695 313.536C174.162 322.331 168.051 328.249 164.362 331.293C160.211 334.337 156.175 335.859 152.255 335.859C148.334 335.859 144.76 333.152 141.532 327.742C138.303 321.99 136.689 315.902 136.689 309.477C136.689 303.389 138.303 294.594 141.532 283.096C143.146 277.345 145.683 269.651 149.142 260.012C152.601 250.372 156.982 238.45 162.286 224.244ZM130.463 167.93L185.116 166.407C193.879 144.085 202.642 122.269 211.405 100.961C220.168 79.6524 228.931 58.6822 237.694 38.0505C221.091 53.2707 203.968 71.5349 186.327 92.8432C168.685 114.151 150.064 139.18 130.463 167.93Z" fill="#000000" fill-rule="nonzero" opacity="1" stroke="none" vectornator:layerName="path"/>
<path d="M382.63 303.897L318.983 258.236C302.609 290.369 293.615 311.17 292.002 320.639C291.31 325.375 290.099 329.434 288.37 332.815C286.64 336.196 284.738 339.157 282.662 341.693C280.587 344.23 278.455 346.089 276.263 347.274C274.071 348.459 272.169 349.05 270.556 349.05C266.175 349.05 263.983 345.835 263.983 339.41C263.983 337.718 264.848 334.083 266.578 328.503C268.307 322.922 270.845 315.99 274.188 307.702C277.531 299.414 281.568 290.115 286.294 279.798C291.021 269.481 296.383 258.573 302.379 247.075C296.615 244.031 292.81 241.664 290.964 239.972C289.118 238.279 288.197 236.25 288.197 233.884C288.197 228.133 290.389 220.522 294.769 211.053C299.15 201.584 303.187 196.004 306.876 194.311C308.722 193.297 311.892 192.282 316.389 191.267C320.885 190.252 326.593 189.067 333.511 187.716C339.508 175.54 346.885 160.827 355.649 143.577C364.413 126.328 374.79 106.034 386.781 82.6964C372.945 86.0785 361.413 88.8689 352.19 91.0675C342.967 93.2661 336.049 95.2107 331.436 96.9019C322.442 99.946 317.945 102.736 317.945 105.273C317.945 107.81 320.25 109.078 324.863 109.078C336.854 109.078 342.851 110.6 342.851 113.644C342.851 114.659 342.043 115.335 340.429 115.674C339.508 116.012 336.74 116.265 332.127 116.435C327.514 116.604 320.942 117.026 312.411 117.703C295.345 118.718 286.697 119.225 286.467 119.225C284.162 119.225 282.2 118.041 280.587 115.674C278.974 113.306 278.166 110.6 278.166 107.556C278.166 98.762 282.087 86.0785 289.927 69.5056C297.766 52.5941 314.37 39.7418 339.737 30.9477C364.873 21.8156 390.702 17.2496 417.221 17.2496C443.51 17.2496 465.878 22.8303 484.327 33.9918C502.777 45.1533 512 63.7556 512 89.7992C512 104.005 509.462 118.041 504.39 131.908C499.318 145.776 491.821 157.952 481.906 168.437C471.991 178.922 452.966 188.394 424.831 196.848C397.388 204.628 367.064 209.868 333.857 212.575C367.756 230.84 394.448 246.314 413.935 258.997C433.422 271.681 446.623 281.237 453.541 287.662C460.689 294.087 464.61 299.667 465.302 304.404C466.224 308.126 466.686 315.565 466.686 326.727C466.686 336.537 466.283 344.654 465.475 351.079C464.667 357.504 462.765 360.719 459.768 360.719C457 360.719 451.236 356.83 442.472 349.05C438.092 345.328 431.001 339.664 421.199 332.054C411.397 324.444 398.542 315.058 382.63 303.897ZM397.504 80.1597C397.734 81.5125 397.907 82.6964 398.023 83.7111C398.139 84.7258 398.196 85.7404 398.196 86.7551C398.196 95.5492 394.334 108.063 386.608 124.298C378.882 140.533 368.794 159.812 356.341 182.135C383.322 174.694 405.69 167.676 423.447 161.08C441.205 154.485 454.695 147.974 463.919 141.548C482.136 129.034 491.245 116.857 491.245 105.019C491.245 95.8872 485.481 88.9537 473.95 84.2184C461.727 79.4831 448.815 77.1157 435.208 77.1157C421.142 77.1157 408.573 78.1303 397.504 80.1597Z" fill="#000000" fill-rule="nonzero" opacity="1" stroke="none" vectornator:layerName="path"/>
</g>
<path d="M154.906 360.719C153.299 360.709 151.603 360.942 149.875 361.406C142.964 363.262 138.325 368.383 139.531 372.875C138.761 390.683 137.783 408.492 137.344 426.312C137.212 431.66 137.356 437.028 137.25 442.375C137.154 447.232 136.809 452.078 136.781 456.938C136.721 467.642 136.855 478.326 136.812 489.031C136.778 497.638 136.775 506.237 136.812 514.844C136.838 520.656 136.777 526.47 136.906 532.281C137.184 544.747 138.329 557.197 139.25 569.625C139.585 574.145 140.019 578.657 140.188 583.188C140.371 588.131 140.231 593.119 140.094 598.062C139.738 610.874 138.439 623.604 135.5 636.094C135.636 636.976 136.861 637.522 138.219 637.312C139.577 637.103 140.543 636.226 140.406 635.344C142.868 624.883 144.228 614.257 144.812 603.531C145.063 598.933 145.182 594.323 145.219 589.719C145.24 587.028 145.167 584.315 145.219 581.625C145.338 575.382 145.557 569.15 145.688 562.906C145.921 551.726 146.155 540.527 147.031 529.375C147.629 521.769 148.486 514.181 149.281 506.594C150.499 494.979 151.808 483.367 153.281 471.781C154.127 465.134 155.09 458.49 155.938 451.844C156.566 446.916 156.916 441.963 157.5 437.031C158.221 430.944 159.182 424.909 159.844 418.812C161.746 401.296 163.183 383.72 164.562 366.156C163.658 362.787 159.729 360.748 154.906 360.719Z" fill="#000000" fill-rule="nonzero" opacity="1" stroke="none" vectornator:layerName="path"/>
<path d="M157.781 408.312C154.731 408.927 151.585 411.915 149.875 416.219C147.596 421.957 148.77 427.831 152.5 429.312C164.82 428.608 177.138 427.947 189.438 426.938C193.413 426.611 197.344 426.078 201.312 425.688C204.576 425.367 207.862 425.315 211.125 425C217.758 424.36 224.368 423.533 231 422.875C246.153 421.371 261.352 420.192 276.531 419C283.107 418.483 289.668 417.969 296.25 417.531C298.874 417.357 301.528 417.148 304.156 417.062C308.64 416.916 313.139 416.97 317.625 416.938C325.314 416.881 332.998 416.862 340.688 416.844C341.434 417.173 342.432 416.492 342.938 415.344C343.443 414.195 343.247 412.985 342.5 412.656C334.16 412.676 325.84 412.72 317.5 412.781C313.647 412.809 309.79 412.91 305.938 412.875C302.798 412.846 299.636 412.635 296.5 412.5C290.226 412.229 283.961 411.922 277.688 411.656C263.9 411.073 250.097 410.539 236.312 409.875C230.702 409.605 225.109 409.25 219.5 408.969C215.715 408.779 211.942 408.962 208.156 408.812C204.409 408.664 200.658 408.38 196.906 408.312C184.851 408.096 172.804 408.352 160.75 408.531C159.818 408.161 158.798 408.108 157.781 408.312Z" fill="#000000" fill-rule="nonzero" opacity="1" stroke="none" vectornator:layerName="path"/>
<path d="M272.438 408.438C270.797 408.55 269.071 408.896 267.344 409.5C260.437 411.918 256.085 417.51 257.656 422C258.509 430.778 258.863 439.587 258.844 448.406C258.829 455.111 258.599 461.828 258.5 468.531C258.426 473.584 258.587 478.605 258.562 483.656C258.549 486.508 258.394 489.368 258.375 492.219C258.353 495.613 258.555 499.019 258.75 502.406C260.105 525.995 262.171 549.513 263.656 573.094C264.164 581.157 264.646 589.238 264.938 597.312C265.092 601.599 265.309 605.898 265.219 610.188C265.127 614.53 264.791 618.884 264.531 623.219C263.853 634.518 262.648 645.775 260.969 656.969C261.158 657.862 262.439 658.354 263.812 658.062C265.186 657.771 266.127 656.799 265.938 655.906C267.551 645.154 268.708 634.349 269.438 623.5C269.805 618.043 269.897 612.577 270.312 607.125C271.419 592.623 272.378 578.123 273.062 563.594C273.823 547.46 274.385 531.303 275.5 515.188C275.918 509.144 276.346 503.089 276.969 497.062C277.324 493.623 277.765 490.195 278.062 486.75C278.309 483.898 278.465 481.066 278.781 478.219C279.363 472.988 280.292 467.795 280.875 462.562C282.699 446.183 283.609 429.718 282.688 413.25C281.509 409.883 277.358 408.1 272.438 408.438Z" fill="#000000" fill-rule="nonzero" opacity="1" stroke="none" vectornator:layerName="path"/>
<path d="M297.844 476.094C291.68 476.149 285.505 476.294 279.344 476.469C275.617 475.053 270.835 478.548 268.656 484.281C266.478 490.015 267.711 495.834 271.438 497.25C283.829 496.379 296.27 495.772 308.656 494.844C312.74 494.538 316.792 494.017 320.875 493.719C324.111 493.482 327.359 493.445 330.594 493.188C334.724 492.859 338.841 492.391 342.969 492.031C351.605 491.278 360.235 490.612 368.875 489.906C377.398 489.21 385.934 488.416 394.469 487.875C401.018 487.46 407.567 487.223 414.125 487C417.191 486.896 420.277 486.719 423.344 486.688C428.863 486.632 434.36 486.693 439.875 486.375C446.878 485.972 453.796 485.053 460.656 483.594C461.378 483.701 462.085 482.892 462.25 481.781C462.415 480.671 461.972 479.67 461.25 479.562C452.293 481.467 443.242 482.279 434.094 482.469C431.147 482.53 428.196 482.631 425.25 482.531C422.346 482.433 419.427 482.135 416.531 481.906C409.297 481.335 402.064 480.613 394.812 480.281C381.833 479.687 368.877 479.235 355.906 478.438C349.746 478.059 343.598 477.502 337.438 477.156C333.905 476.958 330.345 477.054 326.812 476.844C323.311 476.635 319.821 476.346 316.312 476.25C310.15 476.081 304.008 476.039 297.844 476.094Z" fill="#000000" fill-rule="nonzero" opacity="1" stroke="none" vectornator:layerName="path"/>
</g>
</svg>
